<?xml version="1.0" encoding="UTF-8" standalone="no"?>
<svg
   width="50"
   height="50"
   class="bi bi-trash"
   viewBox="0 0 50 50"
   version="1.1"
   id="svg176"
   sodipodi:docname="DELETE.svg"
   inkscape:version="1.2.2 (732a01da63, 2022-12-09)"
   xmlns:inkscape="http://www.inkscape.org/namespaces/inkscape"
   xmlns:sodipodi="http://sodipodi.sourceforge.net/DTD/sodipodi-0.dtd"
   xmlns="http://www.w3.org/2000/svg"
   xmlns:svg="http://www.w3.org/2000/svg">
  <defs
     id="defs180" />
  <sodipodi:namedview
     id="namedview178"
     pagecolor="#505050"
     bordercolor="#eeeeee"
     borderopacity="1"
     inkscape:showpageshadow="0"
     inkscape:pageopacity="0"
     inkscape:pagecheckerboard="0"
     inkscape:deskcolor="#505050"
     showgrid="false"
     inkscape:zoom="14.75"
     inkscape:cx="36.677966"
     inkscape:cy="27.050847"
     inkscape:window-width="2560"
     inkscape:window-height="1494"
     inkscape:window-x="-11"
     inkscape:window-y="-11"
     inkscape:window-maximized="1"
     inkscape:current-layer="svg176" />
  <g
     id="g167"
     transform="matrix(3.3276836,0,0,3.3276836,-1.7288135,0.13559322)">
    <path
       d="M 5.5,5.5 A 0.5,0.5 0 0 1 6,6 v 6 A 0.5,0.5 0 0 1 5,12 V 6 A 0.5,0.5 0 0 1 5.5,5.5 Z M 8,5.5 A 0.5,0.5 0 0 1 8.5,6 v 6 a 0.5,0.5 0 0 1 -1,0 V 6 A 0.5,0.5 0 0 1 8,5.5 Z M 11,6 a 0.5,0.5 0 0 0 -1,0 v 6 a 0.5,0.5 0 0 0 1,0 z"
       id="path172" />
    <path
       fill-rule="evenodd"
       d="m 14.5,3 a 1,1 0 0 1 -1,1 H 13 v 9 a 2,2 0 0 1 -2,2 H 5 A 2,2 0 0 1 3,13 V 4 H 2.5 A 1,1 0 0 1 1.5,3 V 2 a 1,1 0 0 1 1,-1 H 6 A 1,1 0 0 1 7,0 h 2 a 1,1 0 0 1 1,1 h 3.5 a 1,1 0 0 1 1,1 z M 4.118,4 4,4.059 V 13 a 1,1 0 0 0 1,1 h 6 a 1,1 0 0 0 1,-1 V 4.059 L 11.882,4 Z M 2.5,3 V 2 h 11 v 1 z"
       id="path174" />
  </g>
</svg>
