<?xml version="1.0" encoding="UTF-8" standalone="no"?>
<svg
   width="512"
   height="512"
   class="bi bi-hand-index"
   viewBox="0 0 17.066667 17.066667"
   version="1.1"
   id="svg4"
   sodipodi:docname="INTERACT.svg"
   inkscape:version="1.2.2 (732a01da63, 2022-12-09)"
   xmlns:inkscape="http://www.inkscape.org/namespaces/inkscape"
   xmlns:sodipodi="http://sodipodi.sourceforge.net/DTD/sodipodi-0.dtd"
   xmlns="http://www.w3.org/2000/svg"
   xmlns:svg="http://www.w3.org/2000/svg">
  <defs
     id="defs8" />
  <sodipodi:namedview
     id="namedview6"
     pagecolor="#505050"
     bordercolor="#eeeeee"
     borderopacity="1"
     inkscape:showpageshadow="0"
     inkscape:pageopacity="0"
     inkscape:pagecheckerboard="0"
     inkscape:deskcolor="#505050"
     showgrid="false"
     inkscape:zoom="1.84375"
     inkscape:cx="100.33898"
     inkscape:cy="296.67797"
     inkscape:window-width="2560"
     inkscape:window-height="1494"
     inkscape:window-x="-11"
     inkscape:window-y="-11"
     inkscape:window-maximized="1"
     inkscape:current-layer="svg4" />
  <path
     d="m 5.6852049,1.5517576 a 0.75000001,0.75000001 0 0 1 0.75,0.75 v 6.2500001 a 0.50000001,0.50000001 0 0 0 1,0 V 6.0187576 l 0.086,-0.004 c 0.317,-0.012 0.637,-0.008 0.816,0.027 0.134,0.027 0.294,0.096 0.448,0.182 0.077,0.042 0.15,0.147 0.15,0.314 v 2.0140001 a 0.50000001,0.50000001 0 1 0 1,0 V 6.9867576 a 4.9000001,4.9000001 0 0 1 0.1060001,-0.01 c 0.316001,-0.024 0.584001,-0.01 0.708001,0.04 0.118,0.046 0.3,0.207 0.486,0.43 0.081,0.096 0.15,0.19 0.2,0.259 v 1.3460001 a 0.50000001,0.50000001 0 0 0 1,0 V 8.0517576 h 0.342 a 1,1 0 0 1 0.995,1.1000001 l -0.271,2.7150013 a 2.5,2.5 0 0 1 -0.317,0.991 l -1.395,2.442 a 0.50000001,0.50000001 0 0 1 -0.434,0.252 H 4.9702049 a 0.50000001,0.50000001 0 0 1 -0.4160001,-0.223 l -1.433,-2.15 a 1.5,1.5 0 0 1 -0.243,-0.666 l -0.345,-3.1050013 a 0.50000001,0.50000001 0 0 1 0.399,-0.546 l 1.003,-0.2 v 0.89 a 0.50000001,0.50000001 0 0 0 1.0000001,0 V 2.3017576 a 0.75000001,0.75000001 0 0 1 0.75,-0.75 z m 1.75,3.466 v -2.716 a 1.75,1.75 0 1 0 -3.5000001,0 v 5.34 l -1.2,0.24 a 1.5,1.5 0 0 0 -1.196,1.6360001 l 0.345,3.1060013 a 2.5,2.5 0 0 0 0.405,1.11 l 1.433,2.15 a 1.5,1.5 0 0 0 1.2480001,0.668 h 6.3850011 a 1.5,1.5 0 0 0 1.302,-0.756 l 1.395,-2.441 a 3.5,3.5 0 0 0 0.444,-1.389 l 0.271,-2.7150013 a 2,2 0 0 0 -1.99,-2.1990001 h -0.581 a 5.1140001,5.1140001 0 0 0 -0.195,-0.248 c -0.191,-0.229 -0.51,-0.568 -0.88,-0.716 -0.364,-0.146 -0.846,-0.132 -1.1580011,-0.108 l -0.132,0.012 a 1.26,1.26 0 0 0 -0.56,-0.642 2.632,2.632 0 0 0 -0.738,-0.288 c -0.31,-0.062 -0.739,-0.058 -1.05,-0.046 z m 2.094,2.025 z"
     id="path2" />
</svg>
