<?xml version="1.0" encoding="UTF-8" standalone="no"?>
<svg
   width="50"
   height="50"
   class="bi bi-hand-index"
   viewBox="0 0 50 50"
   version="1.1"
   id="svg4"
   sodipodi:docname="INTERACT.svg"
   inkscape:version="1.2.2 (732a01da63, 2022-12-09)"
   xmlns:inkscape="http://www.inkscape.org/namespaces/inkscape"
   xmlns:sodipodi="http://sodipodi.sourceforge.net/DTD/sodipodi-0.dtd"
   xmlns="http://www.w3.org/2000/svg"
   xmlns:svg="http://www.w3.org/2000/svg">
  <defs
     id="defs8" />
  <sodipodi:namedview
     id="namedview6"
     pagecolor="#505050"
     bordercolor="#eeeeee"
     borderopacity="1"
     inkscape:showpageshadow="0"
     inkscape:pageopacity="0"
     inkscape:pagecheckerboard="0"
     inkscape:deskcolor="#505050"
     showgrid="false"
     inkscape:zoom="14.75"
     inkscape:cx="38.237288"
     inkscape:cy="38.711864"
     inkscape:window-width="2560"
     inkscape:window-height="1494"
     inkscape:window-x="-11"
     inkscape:window-y="-11"
     inkscape:window-maximized="1"
     inkscape:current-layer="svg4" />
  <path
     d="m 17.511174,3.6661643 a 2.2849575,2.2849575 0 0 1 2.284958,2.2849575 V 24.992435 a 1.523305,1.523305 0 0 0 3.04661,0 v -7.717063 l 0.262008,-0.01219 c 0.965776,-0.03656 1.940691,-0.02437 2.486034,0.08226 0.408246,0.08226 0.895703,0.292474 1.364881,0.554483 0.234589,0.127957 0.456992,0.447851 0.456992,0.956635 v 6.135873 a 1.523305,1.523305 0 1 0 3.04661,0 v -4.767945 a 14.928389,14.928389 0 0 1 0.322941,-0.03047 c 0.962732,-0.07312 1.779223,-0.03047 2.157003,0.121864 0.3595,0.140144 0.913983,0.630649 1.480652,1.310043 0.246776,0.292474 0.456992,0.578855 0.609322,0.789072 v 4.100737 a 1.523305,1.523305 0 0 0 3.04661,0 v -3.04661 h 1.041941 a 3.04661,3.04661 0 0 1 3.031377,3.351271 l -0.825632,8.27155 a 7.616525,7.616525 0 0 1 -0.965775,3.01919 l -4.250021,7.439822 a 1.523305,1.523305 0 0 1 -1.322229,0.767746 H 15.332848 a 1.523305,1.523305 0 0 1 -1.26739,-0.679394 L 9.699666,39.089103 A 4.569915,4.569915 0 0 1 8.9593397,37.060061 L 7.9082593,27.600333 a 1.523305,1.523305 0 0 1 1.2155974,-1.663449 l 3.0557503,-0.609322 v 2.711483 a 1.5233052,1.5233052 0 0 0 3.04661,0 V 5.9511218 A 2.2849575,2.2849575 0 0 1 17.511174,3.6661643 Z M 22.842742,14.225715 V 5.9511218 a 5.3315677,5.3315677 0 1 0 -10.663135,0 V 22.22002 L 8.5236745,22.951206 A 4.569915,4.569915 0 0 0 4.879929,27.93546 l 1.0510804,9.462775 a 7.616525,7.616525 0 0 0 1.233877,3.381737 l 4.3657926,6.550211 a 4.569915,4.569915 0 0 0 3.802169,2.035136 h 19.452608 a 4.569915,4.569915 0 0 0 3.966687,-2.303237 l 4.25002,-7.436775 a 10.663135,10.663135 0 0 0 1.352695,-4.231742 l 0.825632,-8.27155 A 6.09322,6.09322 0 0 0 39.117736,20.42252 H 37.347655 A 15.580364,15.580364 0 0 0 36.753566,19.66696 C 36.171664,18.969287 35.199795,17.936486 34.07255,17.485588 32.963584,17.040783 31.495118,17.083435 30.544572,17.156554 l -0.402153,0.03656 A 3.8387286,3.8387286 0 0 0 28.436318,15.23719 8.0186775,8.0186775 0 0 0 26.18792,14.359767 c -0.944449,-0.18889 -2.251445,-0.176704 -3.198941,-0.140144 z m 6.379601,6.169385 z"
     id="path2"
     style="stroke-width:3.04661" />
</svg>
