<?xml version="1.0" encoding="UTF-8" standalone="no"?>
<svg
   width="512"
   height="512"
   fill="currentColor"
   class="bi bi-clock"
   viewBox="0 0 16 16"
   version="1.1"
   id="svg228"
   sodipodi:docname="CLOCK.svg"
   inkscape:version="1.2.2 (732a01da63, 2022-12-09)"
   xmlns:inkscape="http://www.inkscape.org/namespaces/inkscape"
   xmlns:sodipodi="http://sodipodi.sourceforge.net/DTD/sodipodi-0.dtd"
   xmlns="http://www.w3.org/2000/svg"
   xmlns:svg="http://www.w3.org/2000/svg">
  <defs
     id="defs232" />
  <sodipodi:namedview
     id="namedview230"
     pagecolor="#505050"
     bordercolor="#eeeeee"
     borderopacity="1"
     inkscape:showpageshadow="0"
     inkscape:pageopacity="0"
     inkscape:pagecheckerboard="0"
     inkscape:deskcolor="#505050"
     showgrid="false"
     inkscape:zoom="1.3037281"
     inkscape:cx="208.63245"
     inkscape:cy="351.30024"
     inkscape:window-width="2560"
     inkscape:window-height="1494"
     inkscape:window-x="-11"
     inkscape:window-y="-11"
     inkscape:window-maximized="1"
     inkscape:current-layer="svg228" />
  <path
     d="m 8,3.5 a 0.5,0.5 0 0 0 -1,0 V 9 a 0.5,0.5 0 0 0 0.252,0.434 l 3.5,2 a 0.5,0.5 0 0 0 0.496,-0.868 L 8,8.71 Z"
     id="path224" />
  <path
     d="M 8,16 A 8,8 0 1 0 8,0 8,8 0 0 0 8,16 Z M 15,8 A 7,7 0 1 1 1,8 7,7 0 0 1 15,8 Z"
     id="path226" />
</svg>
