<?xml version="1.0" encoding="UTF-8" standalone="no"?>
<svg
   width="512"
   height="512"
   class="bi bi-clock-history"
   viewBox="0 0 16 16"
   version="1.1"
   id="svg8"
   sodipodi:docname="DELAY.svg"
   inkscape:version="1.2.2 (732a01da63, 2022-12-09)"
   xmlns:inkscape="http://www.inkscape.org/namespaces/inkscape"
   xmlns:sodipodi="http://sodipodi.sourceforge.net/DTD/sodipodi-0.dtd"
   xmlns="http://www.w3.org/2000/svg"
   xmlns:svg="http://www.w3.org/2000/svg">
  <defs
     id="defs12" />
  <sodipodi:namedview
     id="namedview10"
     pagecolor="#505050"
     bordercolor="#eeeeee"
     borderopacity="1"
     inkscape:showpageshadow="0"
     inkscape:pageopacity="0"
     inkscape:pagecheckerboard="0"
     inkscape:deskcolor="#505050"
     showgrid="false"
     inkscape:zoom="1.3037281"
     inkscape:cx="344.39696"
     inkscape:cy="-9.9714041"
     inkscape:window-width="2560"
     inkscape:window-height="1494"
     inkscape:window-x="-11"
     inkscape:window-y="-11"
     inkscape:window-maximized="1"
     inkscape:current-layer="svg8" />
  <path
     d="M 8.515,1.019 A 7,7 0 0 0 8,1 V 0 a 8,8 0 0 1 0.589,0.022 z m 2.004,0.45 A 7.003,7.003 0 0 0 9.534,1.17 L 9.753,0.194 c 0.383,0.086 0.76,0.2 1.126,0.342 z m 1.37,0.71 A 7.01,7.01 0 0 0 11.45,1.909 l 0.493,-0.87 a 8.025,8.025 0 0 1 0.979,0.654 L 12.307,2.482 A 6.996,6.996 0 0 0 11.889,2.18 Z m 1.834,1.79 A 6.99,6.99 0 0 0 13.07,3.173 l 0.724,-0.69 c 0.27,0.285 0.52,0.59 0.747,0.91 z m 0.744,1.352 A 7.08,7.08 0 0 0 14.253,4.853 l 0.893,-0.45 a 7.976,7.976 0 0 1 0.45,1.088 l -0.95,0.313 A 7.023,7.023 0 0 0 14.467,5.321 Z m 0.53,2.507 a 6.991,6.991 0 0 0 -0.1,-1.025 l 0.985,-0.17 c 0.067,0.386 0.106,0.778 0.116,1.17 l -1,0.025 z m -0.131,1.538 c 0.033,-0.17 0.06,-0.339 0.081,-0.51 l 0.993,0.123 a 7.957,7.957 0 0 1 -0.23,1.155 L 14.746,9.867 c 0.046,-0.165 0.086,-0.332 0.12,-0.501 z m -0.952,2.379 c 0.184,-0.29 0.346,-0.594 0.486,-0.908 l 0.914,0.405 c -0.16,0.36 -0.345,0.706 -0.555,1.038 z M 12.95,12.95 c 0.122,-0.122 0.239,-0.248 0.35,-0.378 l 0.758,0.653 a 8.073,8.073 0 0 1 -0.401,0.432 z"
     id="path2" />
  <path
     d="m 8,1 a 7,7 0 1 0 4.95,11.95 l 0.707,0.707 A 8.001,8.001 0 1 1 8,0 Z"
     id="path4" />
  <path
     d="M 7.5,3 A 0.5,0.5 0 0 1 8,3.5 v 5.21 l 3.248,1.856 a 0.5,0.5 0 0 1 -0.496,0.868 l -3.5,-2 A 0.5,0.5 0 0 1 7,9 V 3.5 A 0.5,0.5 0 0 1 7.5,3 Z"
     id="path6" />
</svg>
