<?xml version="1.0" encoding="UTF-8" standalone="no"?>
<svg
   width="50"
   height="50"
   class="bi bi-lightbulb"
   viewBox="0 0 50 50"
   version="1.1"
   id="svg50"
   sodipodi:docname="LED.svg"
   inkscape:version="1.2.2 (732a01da63, 2022-12-09)"
   xmlns:inkscape="http://www.inkscape.org/namespaces/inkscape"
   xmlns:sodipodi="http://sodipodi.sourceforge.net/DTD/sodipodi-0.dtd"
   xmlns="http://www.w3.org/2000/svg"
   xmlns:svg="http://www.w3.org/2000/svg">
  <defs
     id="defs54" />
  <sodipodi:namedview
     id="namedview52"
     pagecolor="#505050"
     bordercolor="#eeeeee"
     borderopacity="1"
     inkscape:showpageshadow="0"
     inkscape:pageopacity="0"
     inkscape:pagecheckerboard="0"
     inkscape:deskcolor="#505050"
     showgrid="false"
     inkscape:zoom="20.85965"
     inkscape:cx="39.837678"
     inkscape:cy="26.079057"
     inkscape:window-width="2560"
     inkscape:window-height="1494"
     inkscape:window-x="-11"
     inkscape:window-y="-11"
     inkscape:window-maximized="1"
     inkscape:current-layer="svg50" />
  <path
     d="M 6.2666182,18.91993 A 18.727772,18.727772 0 1 1 38.022678,32.372713 c -0.633623,0.611774 -1.120545,1.248519 -1.413947,1.932082 l -2.378427,5.521572 a 1.5606477,1.5606477 0 0 1 -1.432674,0.942631 1.5606477,1.5606477 0 0 1 0,3.121295 1.560648,1.560648 0 0 1 0,3.121296 l -0.69917,1.395219 a 3.1212954,3.1212954 0 0 1 -2.790439,1.726076 h -8.62726 a 3.1212954,3.1212954 0 0 1 -2.790438,-1.726076 l -0.69917,-1.395219 a 1.560648,1.560648 0 0 1 0,-3.121296 1.5606477,1.5606477 0 0 1 0,-3.121295 1.5606477,1.5606477 0 0 1 -1.435796,-0.942631 L 13.380051,34.301674 A 6.1302242,6.1302242 0 0 0 11.966104,32.372713 18.677832,18.677832 0 0 1 6.2666182,18.91993 Z M 24.994391,3.3134529 A 15.606477,15.606477 0 0 0 14.135404,30.131623 c 0.820901,0.792809 1.604346,1.760411 2.109996,2.937139 l 1.97578,4.578941 h 13.552665 l 1.972659,-4.578941 c 0.505649,-1.176728 1.289095,-2.14433 2.109995,-2.937139 A 15.606477,15.606477 0 0 0 24.994391,3.3134529 Z"
     id="path48"
     style="stroke-width:3.1213" />
</svg>
