<?xml version="1.0" encoding="UTF-8" standalone="no"?>
<svg
   width="512"
   height="512"
   class="bi bi-lightbulb"
   viewBox="0 0 16 16"
   version="1.1"
   id="svg50"
   sodipodi:docname="LED.svg"
   inkscape:version="1.2.2 (732a01da63, 2022-12-09)"
   xmlns:inkscape="http://www.inkscape.org/namespaces/inkscape"
   xmlns:sodipodi="http://sodipodi.sourceforge.net/DTD/sodipodi-0.dtd"
   xmlns="http://www.w3.org/2000/svg"
   xmlns:svg="http://www.w3.org/2000/svg">
  <defs
     id="defs54" />
  <sodipodi:namedview
     id="namedview52"
     pagecolor="#505050"
     bordercolor="#eeeeee"
     borderopacity="1"
     inkscape:showpageshadow="0"
     inkscape:pageopacity="0"
     inkscape:pagecheckerboard="0"
     inkscape:deskcolor="#505050"
     showgrid="false"
     inkscape:zoom="1.3037281"
     inkscape:cx="204.7973"
     inkscape:cy="346.69805"
     inkscape:window-width="2560"
     inkscape:window-height="1494"
     inkscape:window-x="-11"
     inkscape:window-y="-11"
     inkscape:window-maximized="1"
     inkscape:current-layer="svg50" />
  <path
     d="m 2,6 a 6,6 0 1 1 10.174,4.31 c -0.203,0.196 -0.359,0.4 -0.453,0.619 l -0.762,1.769 A 0.5,0.5 0 0 1 10.5,13 a 0.5,0.5 0 0 1 0,1 0.5,0.5 0 0 1 0,1 l -0.224,0.447 A 1,1 0 0 1 9.382,16 H 6.618 A 1,1 0 0 1 5.724,15.447 L 5.5,15 a 0.5,0.5 0 0 1 0,-1 0.5,0.5 0 0 1 0,-1 0.5,0.5 0 0 1 -0.46,-0.302 L 4.279,10.928 A 1.964,1.964 0 0 0 3.826,10.31 5.984,5.984 0 0 1 2,6 Z M 8,1 A 5,5 0 0 0 4.521,9.592 c 0.263,0.254 0.514,0.564 0.676,0.941 L 5.83,12 h 4.342 l 0.632,-1.467 C 10.966,10.156 11.217,9.846 11.48,9.592 A 5,5 0 0 0 8,1 Z"
     id="path48" />
</svg>
