<?xml version="1.0" encoding="UTF-8" standalone="no"?>
<svg
   viewBox="0 0 50 50"
   version="1.1"
   id="svg6"
   sodipodi:docname="NOR.svg"
   width="50"
   height="50"
   inkscape:version="1.2.2 (732a01da63, 2022-12-09)"
   xmlns:inkscape="http://www.inkscape.org/namespaces/inkscape"
   xmlns:sodipodi="http://sodipodi.sourceforge.net/DTD/sodipodi-0.dtd"
   xmlns="http://www.w3.org/2000/svg"
   xmlns:svg="http://www.w3.org/2000/svg">
  <defs
     id="defs10" />
  <sodipodi:namedview
     id="namedview8"
     pagecolor="#505050"
     bordercolor="#eeeeee"
     borderopacity="1"
     inkscape:showpageshadow="0"
     inkscape:pageopacity="0"
     inkscape:pagecheckerboard="0"
     inkscape:deskcolor="#505050"
     showgrid="false"
     inkscape:zoom="20.85965"
     inkscape:cx="35.043734"
     inkscape:cy="27.852817"
     inkscape:window-width="2560"
     inkscape:window-height="1494"
     inkscape:window-x="-11"
     inkscape:window-y="-11"
     inkscape:window-maximized="1"
     inkscape:current-layer="g4" />
  <g
     class=""
     id="g4">
    <path
       d="M 0.00682645,1.7816959 C 6.1907051,8.8776972 9.3444839,16.994037 9.3444839,25.125837 c 0,8.131801 -3.1537788,16.248142 -9.33765745,23.344143 H 11.663439 c 5.271756,0 12.66149,-5.256297 18.443417,-11.038224 2.890964,-2.875503 5.426354,-5.859224 7.204219,-8.240018 0.896662,-1.174937 1.607809,-2.226197 2.0716,-2.999182 0.216436,-0.386492 0.386492,-0.726605 0.49471,-0.943041 0.01546,-0.06184 0.03092,-0.0773 0.03092,-0.123678 0,-0.04638 -0.01546,-0.0773 -0.03092,-0.139137 -0.09276,-0.216436 -0.262815,-0.541089 -0.49471,-0.927582 C 38.918884,23.270673 38.223198,22.234874 37.341994,21.044477 35.595049,18.663684 33.090578,15.695422 30.215075,12.819918 24.464067,7.0379931 17.089791,1.7816959 11.663439,1.7816959 Z M 46.293159,21.570107 c -1.978841,0 -3.555731,1.576889 -3.555731,3.55573 0,1.978842 1.57689,3.555731 3.555731,3.555731 1.978841,0 3.55573,-1.576889 3.55573,-3.555731 0,-1.978841 -1.576889,-3.55573 -3.55573,-3.55573 z"
       fill="#000000"
       fill-opacity="1"
       id="path2"
       sodipodi:nodetypes="cscsccccsccccscsssss"
       style="stroke-width:0.154597" />
  </g>
</svg>
