<?xml version="1.0" encoding="UTF-8" standalone="no"?>
<svg
   viewBox="0 0 50 50"
   version="1.1"
   id="svg6"
   sodipodi:docname="OR.svg"
   width="50"
   height="50"
   inkscape:version="1.2.2 (732a01da63, 2022-12-09)"
   xmlns:inkscape="http://www.inkscape.org/namespaces/inkscape"
   xmlns:sodipodi="http://sodipodi.sourceforge.net/DTD/sodipodi-0.dtd"
   xmlns="http://www.w3.org/2000/svg"
   xmlns:svg="http://www.w3.org/2000/svg">
  <defs
     id="defs10" />
  <sodipodi:namedview
     id="namedview8"
     pagecolor="#505050"
     bordercolor="#eeeeee"
     borderopacity="1"
     inkscape:showpageshadow="0"
     inkscape:pageopacity="0"
     inkscape:pagecheckerboard="0"
     inkscape:deskcolor="#505050"
     showgrid="false"
     inkscape:zoom="14.75"
     inkscape:cx="53.084747"
     inkscape:cy="34.440679"
     inkscape:window-width="2560"
     inkscape:window-height="1494"
     inkscape:window-x="-11"
     inkscape:window-y="-11"
     inkscape:window-maximized="1"
     inkscape:current-layer="svg6" />
  <g
     class=""
     id="g4"
     transform="matrix(0.16531039,0,0,0.16531039,-15.061171,-17.312626)">
    <path
       d="M 116.6,407 C 156.6,361.1 177,308.6 177,256 177,203.4 156.6,150.9 116.6,105 H 192 c 34.1,0 81.9,34 119.3,71.4 18.7,18.6 35.1,37.9 46.6,53.3 5.8,7.6 10.4,14.4 13.4,19.4 1.4,2.5 2.5,4.7 3.2,6.1 0.1,0.4 0.2,0.5 0.2,0.8 0,0.3 -0.1,0.5 -0.2,0.9 -0.6,1.4 -1.7,3.5 -3.2,6 -3,5.1 -7.5,11.8 -13.2,19.5 C 346.8,297.8 330.6,317 312,335.6 274.8,373 227.1,407 192,407 Z"
       fill="#000000"
       fill-opacity="1"
       id="path2"
       sodipodi:nodetypes="cscsccccsccccsc" />
  </g>
</svg>
