<?xml version="1.0" encoding="UTF-8" standalone="no"?>
<svg
   width="512"
   height="512"
   class="bi bi-speaker"
   viewBox="0 0 16 16"
   version="1.1"
   id="svg178"
   sodipodi:docname="SPEAKER.svg"
   inkscape:version="1.2.2 (732a01da63, 2022-12-09)"
   xmlns:inkscape="http://www.inkscape.org/namespaces/inkscape"
   xmlns:sodipodi="http://sodipodi.sourceforge.net/DTD/sodipodi-0.dtd"
   xmlns="http://www.w3.org/2000/svg"
   xmlns:svg="http://www.w3.org/2000/svg">
  <defs
     id="defs182" />
  <sodipodi:namedview
     id="namedview180"
     pagecolor="#505050"
     bordercolor="#eeeeee"
     borderopacity="1"
     inkscape:showpageshadow="0"
     inkscape:pageopacity="0"
     inkscape:pagecheckerboard="0"
     inkscape:deskcolor="#505050"
     showgrid="false"
     inkscape:zoom="0.921875"
     inkscape:cx="-68.338983"
     inkscape:cy="219.11864"
     inkscape:window-width="2560"
     inkscape:window-height="1494"
     inkscape:window-x="-11"
     inkscape:window-y="-11"
     inkscape:window-maximized="1"
     inkscape:current-layer="svg178" />
  <path
     d="m 12,1 a 1,1 0 0 1 1,1 v 12 a 1,1 0 0 1 -1,1 H 4 A 1,1 0 0 1 3,14 V 2 A 1,1 0 0 1 4,1 Z M 4,0 A 2,2 0 0 0 2,2 v 12 a 2,2 0 0 0 2,2 h 8 a 2,2 0 0 0 2,-2 V 2 A 2,2 0 0 0 12,0 Z"
     id="path174" />
  <path
     d="m 8,4.75 a 0.75,0.75 0 1 1 0,-1.5 0.75,0.75 0 0 1 0,1.5 z M 8,6 A 2,2 0 1 0 8,2 2,2 0 0 0 8,6 Z m 0,3 a 1.5,1.5 0 1 0 0,3 1.5,1.5 0 0 0 0,-3 z m -3.5,1.5 a 3.5,3.5 0 1 1 7,0 3.5,3.5 0 0 1 -7,0 z"
     id="path176" />
</svg>
