<?xml version="1.0" encoding="UTF-8" standalone="no"?>
<!-- Uploaded to: SVG Repo, www.svgrepo.com, Generator: SVG Repo Mixer Tools -->

<svg
   fill="#000000"
   height="50"
   width="50"
   version="1.1"
   id="Layer_1"
   viewBox="0 0 50 50"
   xml:space="preserve"
   sodipodi:docname="SWITCH-FALSE.svg"
   inkscape:version="1.2.2 (732a01da63, 2022-12-09)"
   xmlns:inkscape="http://www.inkscape.org/namespaces/inkscape"
   xmlns:sodipodi="http://sodipodi.sourceforge.net/DTD/sodipodi-0.dtd"
   xmlns="http://www.w3.org/2000/svg"
   xmlns:svg="http://www.w3.org/2000/svg"><defs
   id="defs6" /><sodipodi:namedview
   id="namedview4"
   pagecolor="#505050"
   bordercolor="#eeeeee"
   borderopacity="1"
   inkscape:showpageshadow="0"
   inkscape:pageopacity="0"
   inkscape:pagecheckerboard="0"
   inkscape:deskcolor="#505050"
   showgrid="false"
   inkscape:zoom="18.88"
   inkscape:cx="38.294492"
   inkscape:cy="19.385593"
   inkscape:window-width="2560"
   inkscape:window-height="1494"
   inkscape:window-x="-11"
   inkscape:window-y="-11"
   inkscape:window-maximized="1"
   inkscape:current-layer="Layer_1" />
<path
   id="XMLID_6_"
   d="M 36.125112,12.504958 H 13.847831 c -7.3702656,0 -13.36645857,5.996193 -13.36645857,13.366458 0,7.370265 5.99619297,13.366461 13.36645857,13.366461 h 22.277281 c 7.370265,0 13.366458,-5.996196 13.366458,-13.366461 0,-7.370265 -5.996193,-13.366458 -13.366458,-13.366458 z M 4.9368584,25.871416 c 0,-4.91351 3.9974619,-8.910972 8.9109726,-8.910972 4.91351,0 8.910972,3.997462 8.910972,8.910972 0,4.91351 -3.997462,8.910972 -8.910972,8.910972 -4.9135107,0 -8.9109726,-3.997462 -8.9109726,-8.910972 z M 36.125112,34.782388 H 23.801238 c 2.12096,-2.366606 3.412902,-5.490496 3.412902,-8.910972 0,-3.420476 -1.291942,-6.544366 -3.412902,-8.910972 h 12.323874 c 4.91351,0 8.910973,3.997462 8.910973,8.910972 0,4.91351 -3.997463,8.910972 -8.910973,8.910972 z"
   style="stroke-width:0.148516" />
</svg>
