<?xml version="1.0" encoding="UTF-8" standalone="no"?>
<svg
   viewBox="0 0 50 50"
   version="1.1"
   id="svg6"
   sodipodi:docname="XNOR.svg"
   width="50"
   height="50"
   inkscape:version="1.2.2 (732a01da63, 2022-12-09)"
   xmlns:inkscape="http://www.inkscape.org/namespaces/inkscape"
   xmlns:sodipodi="http://sodipodi.sourceforge.net/DTD/sodipodi-0.dtd"
   xmlns="http://www.w3.org/2000/svg"
   xmlns:svg="http://www.w3.org/2000/svg">
  <defs
     id="defs10" />
  <sodipodi:namedview
     id="namedview8"
     pagecolor="#505050"
     bordercolor="#eeeeee"
     borderopacity="1"
     inkscape:showpageshadow="0"
     inkscape:pageopacity="0"
     inkscape:pagecheckerboard="0"
     inkscape:deskcolor="#505050"
     showgrid="false"
     inkscape:zoom="20.85965"
     inkscape:cx="31.92767"
     inkscape:cy="26.031118"
     inkscape:window-width="2560"
     inkscape:window-height="1494"
     inkscape:window-x="-11"
     inkscape:window-y="-11"
     inkscape:window-maximized="1"
     inkscape:current-layer="svg6" />
  <path
     d="M 1.6723017,4.186426 0.20791676,5.8894605 C 2.4557226,7.8136523 4.3174403,9.837802 5.8068147,11.911931 6.5994703,13.055955 7.0433674,13.79085 7.2599546,14.160985 9.299098,17.697 10.311173,21.370458 10.311173,25.03142 c 0,3.660962 -1.012075,7.334418 -3.0512184,10.870434 -0.2270857,0.566035 -1.1683288,1.889659 -1.4531399,2.249056 -1.4893744,2.074125 -3.3510921,4.098277 -5.59889794,6.022467 L 1.6723017,45.872663 C 4.4948661,43.448681 6.7764075,40.86227 8.5119283,38.15091 9.1674817,37.052997 9.5210873,36.686535 9.8113828,35.901854 11.635616,32.378332 12.560228,28.717371 12.560228,25.03142 c 0,-3.685952 -0.924612,-7.346914 -2.7488452,-10.870435 C 9.5656323,13.737777 8.8400132,12.386308 8.5119283,11.911931 6.7776569,9.2005698 4.4948661,6.6016616 1.6723017,4.186426 Z m 7.839207,1.9779192 C 14.50941,11.899436 17.058339,18.45918 17.058339,25.03142 c 0,6.572238 -2.548929,13.131985 -7.5468303,18.867074 h 9.4210423 c 4.260711,0 10.233202,-4.248217 14.906237,-8.921252 2.336521,-2.324023 4.385658,-4.735512 5.822556,-6.659703 0.724698,-0.949601 1.299457,-1.799243 1.6743,-2.423981 0.174927,-0.312369 0.312366,-0.587254 0.399831,-0.76218 0.0125,-0.04998 0.02501,-0.06248 0.02501,-0.09996 0,-0.03748 -0.0125,-0.06248 -0.02501,-0.112453 -0.07497,-0.174929 -0.21241,-0.437318 -0.399831,-0.749687 -0.374843,-0.637232 -0.937108,-1.474381 -1.64931,-2.436477 C 38.274428,19.80861 36.250277,17.409617 33.926254,15.085594 29.278206,10.412561 23.318208,6.1643452 18.932551,6.1643452 Z M 46.920796,22.157626 c -1.599326,0 -2.873792,1.274465 -2.873792,2.873794 0,1.599327 1.274466,2.873793 2.873792,2.873793 1.599327,0 2.873793,-1.274466 2.873793,-2.873793 0,-1.599329 -1.274466,-2.873794 -2.873793,-2.873794 z"
     fill="#000000"
     fill-opacity="1"
     id="path2"
     sodipodi:nodetypes="ccccsccccccsccccscsccccsccccscsssss"
     style="stroke-width:0.124948" />
</svg>
