<?xml version="1.0" encoding="UTF-8" standalone="no"?>
<svg
   viewBox="0 0 426.66667 426.66667"
   version="1.1"
   id="svg6"
   sodipodi:docname="XNOR.svg"
   width="512"
   height="512"
   inkscape:version="1.2.2 (732a01da63, 2022-12-09)"
   xmlns:inkscape="http://www.inkscape.org/namespaces/inkscape"
   xmlns:sodipodi="http://sodipodi.sourceforge.net/DTD/sodipodi-0.dtd"
   xmlns="http://www.w3.org/2000/svg"
   xmlns:svg="http://www.w3.org/2000/svg">
  <defs
     id="defs10" />
  <sodipodi:namedview
     id="namedview8"
     pagecolor="#505050"
     bordercolor="#eeeeee"
     borderopacity="1"
     inkscape:showpageshadow="0"
     inkscape:pageopacity="0"
     inkscape:pagecheckerboard="0"
     inkscape:deskcolor="#505050"
     showgrid="false"
     inkscape:zoom="1.3037281"
     inkscape:cx="161.07653"
     inkscape:cy="349.76617"
     inkscape:window-width="2560"
     inkscape:window-height="1494"
     inkscape:window-x="-11"
     inkscape:window-y="-11"
     inkscape:window-maximized="1"
     inkscape:current-layer="svg6" />
  <path
     d="m 28.8026,44.35968 -11.719999,13.63 c 17.989999,15.4 32.889999,31.6 44.809999,48.2 6.343906,9.15604 9.896576,15.03767 11.63,18 16.32,28.3 24.42,57.7 24.42,87 0,29.3 -8.1,58.7 -24.42,87 -1.817446,4.5302 -9.350555,15.12363 -11.63,18 -11.92,16.6 -26.82,32.8 -44.809999,48.2 l 11.719999,13.6 c 22.59,-19.4 40.85,-40.1 54.74,-61.8 5.24663,-8.78697 8.07666,-11.71993 10.4,-18 14.6,-28.2 22,-57.5 22,-87 0,-29.5 -7.4,-58.8 -22,-87 -1.96683,-3.38709 -7.77422,-14.20339 -10.4,-18 -13.88,-21.7 -32.15,-42.5 -54.74,-61.83 z m 62.74,15.83 c 40,45.9 60.4,98.4 60.4,151 0,52.6 -20.4,105.1 -60.4,151 h 75.4 c 34.1,0 81.9,-34 119.3,-71.4 18.7,-18.6 35.1,-37.9 46.6,-53.3 5.8,-7.6 10.4,-14.4 13.4,-19.4 1.4,-2.5 2.5,-4.7 3.2,-6.1 0.1,-0.4 0.2,-0.5 0.2,-0.8 0,-0.3 -0.1,-0.5 -0.2,-0.9 -0.6,-1.4 -1.7,-3.5 -3.2,-6 -3,-5.1 -7.5,-11.8 -13.2,-19.5 -11.3,-15.4 -27.5,-34.6 -46.1,-53.2 -37.2,-37.4 -84.9,-71.4 -120,-71.4 z m 299.4,128 c -12.8,0 -23,10.2 -23,23 0,12.8 10.2,23 23,23 12.8,0 23,-10.2 23,-23 0,-12.8 -10.2,-23 -23,-23 z"
     fill="#000000"
     fill-opacity="1"
     id="path2"
     sodipodi:nodetypes="ccccsccccccsccccscsccccsccccscsssss" />
</svg>
