<?xml version="1.0" encoding="UTF-8" standalone="no"?>
<svg
   viewBox="0 0 365.71429 365.71429"
   version="1.1"
   id="svg6"
   sodipodi:docname="XOR.svg"
   inkscape:version="1.2.2 (732a01da63, 2022-12-09)"
   width="512"
   height="512"
   xmlns:inkscape="http://www.inkscape.org/namespaces/inkscape"
   xmlns:sodipodi="http://sodipodi.sourceforge.net/DTD/sodipodi-0.dtd"
   xmlns="http://www.w3.org/2000/svg"
   xmlns:svg="http://www.w3.org/2000/svg">
  <defs
     id="defs10" />
  <sodipodi:namedview
     id="namedview8"
     pagecolor="#505050"
     bordercolor="#eeeeee"
     borderopacity="1"
     inkscape:showpageshadow="0"
     inkscape:pageopacity="0"
     inkscape:pagecheckerboard="0"
     inkscape:deskcolor="#505050"
     showgrid="false"
     inkscape:zoom="1.3037281"
     inkscape:cx="-164.91168"
     inkscape:cy="267.69385"
     inkscape:window-width="2560"
     inkscape:window-height="1494"
     inkscape:window-x="-11"
     inkscape:window-y="-11"
     inkscape:window-maximized="1"
     inkscape:current-layer="g4" />
  <g
     class=""
     id="g4">
    <path
       d="m 29.205429,17.945685 -11.72,13.63 c 17.99,15.4 32.89,31.6 44.81,48.2 1.80005,2.79562 9.620796,13.58957 11.63,18 16.32,28.299995 24.42,57.699995 24.42,86.999995 0,29.3 -8.1,58.7 -24.42,87 -2.29684,5.87251 -8.200009,13.11018 -11.63,18 -11.92,16.6 -26.82,32.8 -44.81,48.2 l 11.72,13.6 c 22.59,-19.4 40.85,-40.1 54.74,-61.8 5.66882,-9.83527 7.78045,-11.52604 10.4,-18 14.600001,-28.2 22.000001,-57.5 22.000001,-87 0,-29.5 -7.4,-58.8 -22.000001,-86.999995 -4.12863,-7.45055 -9.1921,-14.93188 -10.4,-18 -13.88,-21.7 -32.15,-42.5 -54.74,-61.83 z m 62.74,15.83 c 40.000001,45.9 60.400001,98.399995 60.400001,150.999995 0,52.6 -20.4,105.1 -60.400001,151 h 75.400001 c 34.1,0 81.9,-34 119.3,-71.4 18.7,-18.6 35.1,-37.9 46.6,-53.3 5.8,-7.6 10.4,-14.4 13.4,-19.4 1.4,-2.5 2.5,-4.7 3.2,-6.1 0.1,-0.4 0.2,-0.5 0.2,-0.8 0,-0.3 -0.1,-0.5 -0.2,-0.9 -0.6,-1.4 -1.7,-3.5 -3.2,-6 -3,-5.1 -7.5,-11.8 -13.2,-19.5 -11.3,-15.4 -27.5,-34.6 -46.1,-53.2 -37.2,-37.399995 -84.9,-71.399995 -120,-71.399995 z"
       fill="#000000"
       fill-opacity="1"
       id="path2"
       sodipodi:nodetypes="ccccsccccccsccccscsccccsccccsc" />
  </g>
</svg>
