<?xml version="1.0" encoding="UTF-8" standalone="no"?>
<svg
   viewBox="0 0 50 50"
   version="1.1"
   id="svg6"
   sodipodi:docname="XOR.svg"
   inkscape:version="1.2.2 (732a01da63, 2022-12-09)"
   width="50"
   height="50"
   xmlns:inkscape="http://www.inkscape.org/namespaces/inkscape"
   xmlns:sodipodi="http://sodipodi.sourceforge.net/DTD/sodipodi-0.dtd"
   xmlns="http://www.w3.org/2000/svg"
   xmlns:svg="http://www.w3.org/2000/svg">
  <defs
     id="defs10" />
  <sodipodi:namedview
     id="namedview8"
     pagecolor="#505050"
     bordercolor="#eeeeee"
     borderopacity="1"
     inkscape:showpageshadow="0"
     inkscape:pageopacity="0"
     inkscape:pagecheckerboard="0"
     inkscape:deskcolor="#505050"
     showgrid="false"
     inkscape:zoom="14.75"
     inkscape:cx="22.576272"
     inkscape:cy="33.627119"
     inkscape:window-width="2560"
     inkscape:window-height="1494"
     inkscape:window-x="-11"
     inkscape:window-y="-11"
     inkscape:window-maximized="1"
     inkscape:current-layer="g4" />
  <g
     class=""
     id="g4">
    <path
       d="M 2.01093,0.31856597 0.26508962,2.3489252 C 2.944926,4.6429482 5.164467,7.056142 6.9401009,9.5289189 c 0.2681395,0.416443 1.4331379,2.0243371 1.7324341,2.6813271 2.431069,4.215639 3.637665,8.595137 3.637665,12.959739 0,4.364602 -1.206596,8.7441 -3.637665,12.959741 C 8.3303918,39.00451 7.4510414,40.082651 6.9401009,40.811052 5.164467,43.283829 2.944926,45.697023 0.26508962,47.991046 L 2.01093,50.016937 c 3.3650648,-2.889873 6.0851199,-5.973398 8.15421,-9.205885 0.844442,-1.465087 1.158995,-1.716949 1.54921,-2.681326 2.174854,-4.200743 3.277177,-8.565346 3.277177,-12.959741 0,-4.394394 -1.102323,-8.758996 -3.277177,-12.959739 C 11.099339,11.100392 10.345072,9.9859539 10.16514,9.5289189 8.0975399,6.2964327 5.3759948,3.1980117 2.01093,0.31856597 Z m 9.34591,2.35807663 c 5.958502,6.8373803 8.997337,14.6579134 8.997337,22.4933424 0,7.835429 -3.038835,15.655963 -8.997337,22.493343 h 11.231776 c 5.079623,0 12.200032,-5.064726 17.77123,-10.635925 2.7856,-2.770703 5.228585,-5.64568 6.941654,-7.939703 0.863983,-1.132115 1.549211,-2.145061 1.996098,-2.889873 0.208548,-0.372407 0.372406,-0.700124 0.476681,-0.908672 0.0149,-0.05959 0.02979,-0.07449 0.02979,-0.11917 0,-0.04469 -0.0149,-0.07449 -0.02979,-0.134066 C 49.684899,24.827372 49.521042,24.51455 49.297598,24.142143 48.850711,23.382435 48.180379,22.384385 47.331293,21.237374 45.648016,18.943351 43.234823,16.08327 40.46412,13.312568 34.922714,7.7413692 27.8172,2.6766426 22.588616,2.6766426 Z"
       fill="#000000"
       fill-opacity="1"
       id="path2"
       sodipodi:nodetypes="ccccsccccccsccccscsccccsccccsc"
       style="stroke-width:0.148963" />
  </g>
</svg>
